# File exported by Houdini 16.0.633 (www.sidefx.com)
# 149 points
# 300 vertices
# 75 primitives
# Bounds: [3.81469727e-06, -8.21997738, -1.05000007] to [51.115799, 8.21997738, 1.05000007]
g 
v 43.8992653 -3.38984132 -1.05000007
v 38.6217003 -3.24950385 -1.05000007
v 38.0192642 -3.1493609 -1.05000007
v 36.3392639 -2.85533261 -1.05000007
v 34.7370682 -2.4095037 -1.05000007
v 32.2755203 1.79049623 -1.05000007
v 25.4192619 6.64924145 -1.05000007
v 22.8992653 6.53440142 -1.05000007
v 22.0670433 5.99049568 -1.05000007
v 12.9372406 -6.60950422 -1.05000007
v 13.6592674 -7.26470995 -1.05000007
v 7.92232132 0.950496018 -1.05000007
v 7.77926254 6.33824396 -1.05000007
v 7.54882812 0.11049585 -1.05000007
v 6.37627029 5.99049568 -1.05000007
v 6.62422943 -2.4095037 -1.05000007
v 4.77716446 5.15049601 -1.05000007
v 1.89926147 3.25862384 -1.05000007
v 1.0760994 2.63049531 -1.05000007
v 50.6783562 6.83049583 -1.05000007
v 50.6192627 2.59417343 -1.05000007
v 48.9392624 0.855226755 -1.05000007
v 47.2592621 -0.780912578 -1.05000007
v 45.5792618 -2.46962428 -1.05000007
v 43.8992653 5.23548651 -1.05000007
v 43.0592613 3.58765364 -1.05000007
v 41.3792648 1.77653384 -1.05000007
v 41.2619743 -2.4095037 -1.05000007
v 40.5392647 3.87106752 -1.05000007
v 39.6992645 5.87254429 -1.05000007
v 38.8592606 -5.19583035 -1.05000007
v 36.9626083 6.83049583 -1.05000007
v 37.1792641 6.89256334 -1.05000007
v 33.8192596 5.15214014 -1.05000007
v 32.9792633 4.31204891 -1.05000007
v 32.896553 0.11049585 -1.05000007
v 29.6192627 -1.57404685 -1.05000007
v 26.2592621 -3.31726813 -1.05000007
v 22.4297848 -1.5695045 -1.05000007
v 19.5392647 -7.47064686 -1.05000007
v 17.8592644 5.88464069 -1.05000007
v 12.8192635 -0.226893172 -1.05000007
v 12.9293938 -1.5695045 -1.05000007
v 11.9792633 -3.23199224 -1.05000007
v 11.1392632 7.82972908 -1.05000007
v 10.2992668 1.11142075 -1.05000007
v 3.81469727e-06 -0.729504287 -1.05000007
v 51.1059418 5.99049568 -1.05000007
v 51.115799 3.47049546 -1.05000007
v 48.9392624 8.07224178 -1.05000007
v 47.2592621 8.21997738 -1.05000007
v 45.8632011 7.67049599 -1.05000007
v 40.6236229 3.47049546 -1.05000007
v 40.5392647 -1.88425028 -1.05000007
v 38.0192642 -1.97849214 -1.05000007
v 29.8707294 1.79049623 -1.05000007
v 29.6192627 2.25903749 -1.05000007
v 30.2167816 0.11049585 -1.05000007
v 28.3281021 4.31049585 -1.05000007
v 27.9392643 -2.79365158 -1.05000007
v 27.0992641 5.7085948 -1.05000007
v 24.5792637 -3.3858645 -1.05000007
v 21.458231 -2.4095037 -1.05000007
v 21.3681011 -4.92950392 -1.05000007
v 20.3792629 4.63024282 -1.05000007
v 18.6992645 -7.86064529 -1.05000007
v 17.0192642 6.60030794 -1.05000007
v 17.0192642 -8.21997738 -1.05000007
v 15.3392639 7.62240648 -1.05000007
v 13.6592674 8.07687473 -1.05000007
v 9.45926666 7.10410929 -1.05000007
v 5.2592659 -3.22209501 -1.05000007
v 3.57926559 -3.15179229 -1.05000007
v 1.89926529 -2.58293986 -1.05000007
v 32.896553 0.11049585 1.05000007
v 32.2755203 1.79049623 1.05000007
v 32.9792633 4.31204891 1.05000007
v 33.8192596 5.15214014 1.05000007
v 36.9626083 6.83049583 1.05000007
v 37.1792641 6.89256334 1.05000007
v 39.6992645 5.87254429 1.05000007
v 40.5392647 3.87106752 1.05000007
v 40.6236229 3.47049546 1.05000007
v 41.3792648 1.77653384 1.05000007
v 43.0592613 3.58765364 1.05000007
v 43.8992653 5.23548651 1.05000007
v 45.8632011 7.67049599 1.05000007
v 47.2592621 8.21997738 1.05000007
v 48.9392624 8.07224178 1.05000007
v 50.6783562 6.83049583 1.05000007
v 51.1059418 5.99049568 1.05000007
v 51.115799 3.47049546 1.05000007
v 50.6192627 2.59417343 1.05000007
v 48.9392624 0.855226755 1.05000007
v 47.2592621 -0.780912578 1.05000007
v 45.5792618 -2.46962428 1.05000007
v 43.8992653 -3.38984132 1.05000007
v 41.2619743 -2.4095037 1.05000007
v 40.5392647 -1.88425028 1.05000007
v 38.6217003 -3.24950385 1.05000007
v 38.0192642 -1.97849214 1.05000007
v 36.3392639 -2.85533261 1.05000007
v 34.7370682 -2.4095037 1.05000007
v 22.0670433 5.99049568 1.05000007
v 22.8992653 6.53440142 1.05000007
v 25.4192619 6.64924145 1.05000007
v 27.0992641 5.7085948 1.05000007
v 28.3281021 4.31049585 1.05000007
v 29.6192627 2.25903749 1.05000007
v 29.8707294 1.79049623 1.05000007
v 30.2167816 0.11049585 1.05000007
v 29.6192627 -1.57404685 1.05000007
v 27.9392643 -2.79365158 1.05000007
v 26.2592621 -3.31726813 1.05000007
v 24.5792637 -3.3858645 1.05000007
v 22.4297848 -1.5695045 1.05000007
v 21.458231 -2.4095037 1.05000007
v 21.3681011 -4.92950392 1.05000007
v 19.5392647 -7.47064686 1.05000007
v 18.6992645 -7.86064529 1.05000007
v 17.0192642 -8.21997738 1.05000007
v 13.6592674 -7.26470995 1.05000007
v 12.9372406 -6.60950422 1.05000007
v 11.9792633 -3.23199224 1.05000007
v 12.9293938 -1.5695045 1.05000007
v 12.8192635 -0.226893172 1.05000007
v 10.2992668 1.11142075 1.05000007
v 7.92232132 0.950496018 1.05000007
v 7.54882812 0.11049585 1.05000007
v 6.62422943 -2.4095037 1.05000007
v 5.2592659 -3.22209501 1.05000007
v 3.57926559 -3.15179229 1.05000007
v 1.89926529 -2.58293986 1.05000007
v 3.81469727e-06 -0.729504287 1.05000007
v 1.0760994 2.63049531 1.05000007
v 1.89926147 3.25862384 1.05000007
v 4.77716446 5.15049601 1.05000007
v 6.37627029 5.99049568 1.05000007
v 7.77926254 6.33824396 1.05000007
v 9.45926666 7.10410929 1.05000007
v 11.1392632 7.82972908 1.05000007
v 13.6592674 8.07687473 1.05000007
v 15.3392639 7.62240648 1.05000007
v 17.0192642 6.60030794 1.05000007
v 17.8592644 5.88464069 1.05000007
v 20.3792629 4.63024282 1.05000007
v 38.0192642 -3.1493609 1.05000007
v 38.6217003 -3.24950385 1.05000007
v 38.8592606 -5.19583035 1.05000007
vt 0.0641003251 0.541000068 0
vt 0.0641003326 0.571062028 0
vt 8.39644265e-09 0.571062028 0
vt 0 0.541000128 0
vt 8.31392555e-08 0.0533858314 0
vt 0 0.0320045128 0
vt 0.0666360706 0.0320041552 0
vt 0.0666362047 0.053385403 0
vt 0.0666362047 0.053385403 0
vt 0.0666360706 0.0320041552 0
vt 0.096875377 0.0320039056 0
vt 0.096875377 0.0533851758 0
vt 0.096875377 0.0533851758 0
vt 0.096875377 0.0320039056 0
vt 0.187576324 0.0320040099 0
vt 0.18757695 0.0533850864 0
vt 0.18757695 0.0533850864 0
vt 0.187576324 0.0320040099 0
vt 0.193312705 0.0320030116 0
vt 0.193313375 0.0533840992 0
vt 0.193313375 0.0533840992 0
vt 0.193312705 0.0320030116 0
vt 0.262512535 0.0320032202 0
vt 0.262512445 0.0533843003 0
vt 0.262512445 0.0533843003 0
vt 0.262512535 0.0320032202 0
vt 0.31776163 0.0320025459 0
vt 0.3177616 0.0533845425 0
vt 0.3177616 0.0533845425 0
vt 0.31776163 0.0320025459 0
vt 0.328183323 0.0320020765 0
vt 0.328183234 0.0533840992 0
vt 0.328183234 0.0533840992 0
vt 0.328183323 0.0320020765 0
vt 0.375395417 0.032002572 0
vt 0.375395387 0.0533836223 0
vt 0.375395387 0.0533836223 0
vt 0.375395417 0.032002572 0
vt 0.438275248 0.0320019014 0
vt 0.438275248 0.0533832833 0
vt 0.438275248 0.0533832833 0
vt 0.438275248 0.0320019014 0
vt 0.485354275 0.0320018902 0
vt 0.485354245 0.053383261 0
vt 0.485354245 0.053383261 0
vt 0.485354275 0.0320018902 0
vt 0.564982176 0.0320007987 0
vt 0.564981639 0.0533823743 0
vt 0.564981639 0.0533823743 0
vt 0.564982176 0.0320007987 0
vt 0.603170812 0.0320016034 0
vt 0.603169918 0.0533835366 0
vt 0.603169918 0.0533835366 0
vt 0.603170812 0.0320016034 0
vt 0.646098375 0.0320000015 0
vt 0.646097779 0.053381741 0
vt 0.646097779 0.053381741 0
vt 0.646098375 0.0320000015 0
vt 0.700490892 0.0320008062 0
vt 0.700490177 0.0533823892 0
vt 0.700490177 0.0533823892 0
vt 0.700490892 0.0320008062 0
vt 0.724482298 0.0320004784 0
vt 0.724482656 0.0533816516 0
vt 0.724482656 0.0533816516 0
vt 0.724482298 0.0320004784 0
vt 0.78862685 0.0320000015 0
vt 0.788626969 0.0533814505 0
vt 0.930670142 0.541000009 0
vt 0.930670142 0.571061969 0
vt 0.894623756 0.571061969 0
vt 0.894623756 0.541000009 0
vt 0.894623756 0.541000009 0
vt 0.894623756 0.571061969 0
vt 0.808091223 0.571061969 0
vt 0.808091223 0.541000009 0
vt 0.808091223 0.541000009 0
vt 0.808091223 0.571061969 0
vt 0.724165857 0.571061909 0
vt 0.724165797 0.541000009 0
vt 0.724165797 0.541000009 0
vt 0.724165857 0.571061909 0
vt 0.638917148 0.571061969 0
vt 0.638917089 0.541000009 0
vt 0.638917089 0.541000009 0
vt 0.638917148 0.571061969 0
vt 0.570364654 0.571061969 0
vt 0.570364654 0.541000009 0
vt 0.570364654 0.541000009 0
vt 0.570364654 0.571061969 0
vt 0.469671458 0.571061969 0
vt 0.469671458 0.541000009 0
vt 0.469671458 0.541000009 0
vt 0.469671458 0.571061969 0
vt 0.437697619 0.571061969 0
vt 0.437697619 0.541000009 0
vt 0.437697619 0.541000009 0
vt 0.437697619 0.571061969 0
vt 0.353455275 0.571061969 0
vt 0.353455305 0.541000009 0
vt 0.353455305 0.541000009 0
vt 0.353455275 0.571061969 0
vt 0.303117394 0.571061969 0
vt 0.303117394 0.541000009 0
vt 0.303117394 0.541000009 0
vt 0.303117394 0.571061969 0
vt 0.235296965 0.571061969 0
vt 0.235296935 0.541000009 0
vt 0.235296935 0.541000009 0
vt 0.235296965 0.571061969 0
vt 0.17577906 0.571061969 0
vt 0.17577906 0.541000068 0
vt 0.17577906 0.541000068 0
vt 0.17577906 0.571061969 0
vt 0.0641003326 0.571062028 0
vt 0.0641003251 0.541000068 0
vt 0.693897009 0.02138515 0
vt 0.693897247 3.6089134e-06 0
vt 0.71920377 3.11781764e-06 0
vt 0.71920377 0.021384446 0
vt 0.71920377 0.021384446 0
vt 0.71920377 3.11781764e-06 0
vt 0.783413708 2.40620352e-06 0
vt 0.783413947 0.0213836711 0
vt 0.783413947 0.0213836711 0
vt 0.783413708 2.40620352e-06 0
vt 0.832423091 1.16467265e-06 0
vt 0.83242327 0.0213826057 0
vt 0.83242327 0.0213826057 0
vt 0.832423091 1.16467265e-06 0
vt 0.879802823 1.40555198e-06 0
vt 0.879803061 0.0213827696 0
vt 0.879803061 0.0213827696 0
vt 0.879802823 1.40555198e-06 0
vt 0.941501737 4.39903829e-07 0
vt 0.941502213 0.0213815756 0
vt 0.941502213 0.0213815756 0
vt 0.941501737 4.39903829e-07 0
vt 0.955037177 0 0
vt 0.955037475 0.0213810299 0
vt 0.955037475 0.0213810299 0
vt 0.955037177 0 0
vt 0.9986974 0 0
vt 0.998697996 0.0213809256 0
vt 0.990555763 0.5 0
vt 0.990555763 0.530061901 0
vt 0.926589072 0.53006202 0
vt 0.926589072 0.500000119 0
vt 0.926589072 0.500000119 0
vt 0.926589072 0.53006202 0
vt 0.852292657 0.530062199 0
vt 0.852292538 0.500000238 0
vt 0.852292538 0.500000238 0
vt 0.852292657 0.530062199 0
vt 0.789316237 0.530062318 0
vt 0.789316118 0.500000358 0
vt 0.789316118 0.500000358 0
vt 0.789316237 0.530062318 0
vt 0.729142249 0.530062377 0
vt 0.729142249 0.500000477 0
vt 0.729142249 0.500000477 0
vt 0.729142249 0.530062377 0
vt 0.628429532 0.530062616 0
vt 0.628429472 0.500000656 0
vt 0.628429472 0.500000656 0
vt 0.628429532 0.530062616 0
vt 0.582465768 0.530062675 0
vt 0.582465649 0.500000715 0
vt 0.582465649 0.500000715 0
vt 0.582465768 0.530062675 0
vt 0.492222309 0.530062854 0
vt 0.492222279 0.500000894 0
vt 0.492222279 0.500000894 0
vt 0.492222309 0.530062854 0
vt 0.380176455 0.530063093 0
vt 0.380176306 0.500001073 0
vt 0.380176306 0.500001073 0
vt 0.380176455 0.530063093 0
vt 0.347032607 0.530063152 0
vt 0.347032428 0.500001073 0
vt 0.347032428 0.500001073 0
vt 0.347032607 0.530063152 0
vt 0.285548687 0.530063212 0
vt 0.285548568 0.500001252 0
vt 0.285548568 0.500001252 0
vt 0.285548687 0.530063212 0
vt 0.160535708 0.53006345 0
vt 0.160535634 0.50000149 0
vt 0.160535634 0.50000149 0
vt 0.160535708 0.53006345 0
vt 0.125642508 0.53006351 0
vt 0.125642449 0.50000155 0
vt 0.125642449 0.50000155 0
vt 0.125642508 0.53006351 0
vt 5.87751003e-08 0.530063748 0
vt 0 0.500001788 0
vt 0.876999974 0.0533813313 0
vt 0.876999974 0.0320000015 0
vt 0.925740242 0.0320000015 0
vt 0.925740242 0.0533813275 0
vt 0.640027344 0.582000017 0
vt 0.640027344 0.612061977 0
vt 0.591816604 0.612061977 0
vt 0.591816604 0.582000017 0
vt 0.591816604 0.582000017 0
vt 0.591816604 0.612061977 0
vt 0.489701658 0.612061977 0
vt 0.489701658 0.582000017 0
vt 0.489701658 0.582000017 0
vt 0.489701658 0.612061977 0
vt 0.40444085 0.612061977 0
vt 0.40444082 0.582000017 0
vt 0.40444082 0.582000017 0
vt 0.40444085 0.612061977 0
vt 0.371541172 0.612061977 0
vt 0.371541172 0.582000017 0
vt 0.371541172 0.582000017 0
vt 0.371541172 0.612061977 0
vt 0.275476635 0.612061977 0
vt 0.275476635 0.582000077 0
vt 0.275476635 0.582000077 0
vt 0.275476635 0.612061977 0
vt 0.218626231 0.612061977 0
vt 0.218626231 0.582000077 0
vt 0.218626231 0.582000077 0
vt 0.218626231 0.612061977 0
vt 0.15844968 0.612061977 0
vt 0.15844968 0.582000077 0
vt 0.15844968 0.582000077 0
vt 0.15844968 0.612061977 0
vt 0.0949726999 0.612062037 0
vt 0.0949726999 0.582000077 0
vt 0.0949726999 0.582000077 0
vt 0.0949726999 0.612062037 0
vt 8.39644265e-09 0.612062037 0
vt 0 0.582000077 0
vt 3.72571549e-07 0.0213931296 0
vt 0 1.18263788e-05 0
vt 0.0898048803 1.06713105e-05 0
vt 0.0898047909 0.021391524 0
vt 0.0898047909 0.021391524 0
vt 0.0898048803 1.06713105e-05 0
vt 0.116160199 9.73141505e-06 0
vt 0.116160594 0.0213910043 0
vt 0.116160594 0.0213910043 0
vt 0.116160199 9.73141505e-06 0
vt 0.203825593 8.28497105e-06 0
vt 0.20382534 0.0213901307 0
vt 0.20382534 0.0213901307 0
vt 0.203825593 8.28497105e-06 0
vt 0.249805301 1.10610963e-05 0
vt 0.249805734 0.0213924777 0
vt 0.249805734 0.0213924777 0
vt 0.249805301 1.10610963e-05 0
vt 0.286594719 7.08559492e-06 0
vt 0.286595613 0.0213879701 0
vt 0.286595613 0.0213879701 0
vt 0.286594719 7.08559492e-06 0
vt 0.333591968 7.43582814e-06 0
vt 0.333591968 0.0213891305 0
vt 0.333591968 0.0213891305 0
vt 0.333591968 7.43582814e-06 0
vt 0.380173892 7.06203764e-06 0
vt 0.380173922 0.0213887691 0
vt 0.380173922 0.0213887691 0
vt 0.380173892 7.06203764e-06 0
vt 0.444626302 7.7045097e-06 0
vt 0.4446266 0.0213887263 0
vt 0.4446266 0.0213887263 0
vt 0.444626302 7.7045097e-06 0
vt 0.488923281 4.92468052e-06 0
vt 0.488923848 0.0213859007 0
vt 0.488923848 0.0213859007 0
vt 0.488923281 4.92468052e-06 0
vt 0.538979709 3.59650335e-06 0
vt 0.538979053 0.0213855486 0
vt 0.538979053 0.0213855486 0
vt 0.538979709 3.59650335e-06 0
vt 0.567070603 6.84702627e-06 0
vt 0.567070603 0.021388147 0
vt 0.567070603 0.021388147 0
vt 0.567070603 6.84702627e-06 0
vt 0.638719976 3.41891223e-06 0
vt 0.638720393 0.0213844907 0
vt 0.638720393 0.0213844907 0
vt 0.638719976 3.41891223e-06 0
vt 0.693897247 3.6089134e-06 0
vt 0.693897009 0.02138515 0
vt 0.865454257 0.0320000015 0
vt 0.865454257 0.0533813238 0
vt 0.849909365 0.0533813275 0
vt 0.849909365 0.0320000015 0
vt 0.849909365 0.0320000015 0
vt 0.849909365 0.0533813275 0
vt 0.800000012 0.053381335 0
vt 0.800000012 0.0320000015 0
vt 0.651000023 0.612061918 0
vt 0.651000023 0.582000017 0
vt 0.7301687 0.582000017 0
vt 0.7301687 0.612061918 0
vn 0.0725460723 -0.997364938 6.10709895e-17
vn 0.98706156 -0.160340801 9.81804244e-18
vn -0.781947136 0.623344839 -3.8168863e-17
vn 0.104628429 -0.994511366 6.08962558e-17
vn -0.569328129 -0.822110295 5.03397405e-17
vn -0.999161303 -0.0409461893 2.50723097e-18
vn 0.230352044 0.973107338 -5.95856378e-17
vn -0.307159454 0.95165807 -5.8272247e-17
vn -0.588023901 0.808843613 -4.95273829e-17
vn -0.849833488 -0.52705127 3.22725839e-17
vn -0.485519201 -0.874225974 5.35309007e-17
vn 0.572872818 -0.819644272 5.01887337e-17
vn -0.329095542 0.944296598 -5.78214932e-17
vn 0.92679131 -0.375576675 2.29974375e-17
vn -0.355380267 0.934721768 -5.72351942e-17
vn 0.769499362 -0.638647616 3.91058833e-17
vn -0.507784545 0.86148411 -5.27506907e-17
vn -0.578328013 0.815804422 -4.99536126e-17
vn -0.81708163 0.576522052 -3.53017921e-17
vn 0.757850707 0.652427971 -3.99496902e-17
vn 0.800999045 -0.598665535 3.66576934e-17
vn 0.708524287 -0.705686331 4.32108266e-17
vn 0.703335047 -0.710858524 4.35275342e-17
vn 0.600838006 -0.799370885 4.89473506e-17
vn -0.83915329 0.543895125 -3.33039657e-17
vn -0.819853067 0.572574079 -3.5060047e-17
vn 0.163398832 0.986560047 -6.04093839e-17
vn -0.472551733 -0.881302774 5.39642275e-17
vn 0.954604864 0.297874779 -1.82395691e-17
vn 0.702583432 0.711601317 -4.35730126e-17
vn 0.25270471 -0.967543423 5.92449453e-17
vn -0.375297219 0.926904559 -5.67565345e-17
vn 0.0527783185 0.998606205 -6.11469974e-17
vn -0.595542789 0.803323567 -4.91893804e-17
vn -0.863436282 0.50445801 -3.08891442e-17
vn -0.881178319 -0.472784162 2.89496803e-17
vn 0.800982594 -0.598687649 3.66590466e-17
vn 0.170632422 -0.985334694 6.03343487e-17
vn 0.00565400766 -0.999984086 6.12313632e-17
vn 0.637171805 -0.770721912 4.71931057e-17
vn 0.551161528 0.834398508 -5.10921737e-17
vn -0.835243583 -0.549880147 3.36704497e-17
vn -0.976184309 0.21694319 -1.32839391e-17
vn -0.992637932 0.121118866 -7.41639218e-18
vn -0.25005573 0.96823138 -5.92870785e-17
vn -0.208753392 -0.977968335 5.98832905e-17
vn -0.970419824 -0.241423488 1.47829252e-17
vn 0.971957922 0.235154852 -1.4399082e-17
vn 0.967461348 -0.253018677 1.54929258e-17
vn 0.346551597 0.938030899 -5.74378269e-17
vn -0.14313671 0.98970288 -6.06018259e-17
vn -0.591989994 0.805945218 -4.9349913e-17
vn 0.951236248 0.308463246 -1.88879265e-17
vn -0.00487890653 -0.999988139 6.12316081e-17
vn -0.317954153 -0.94810605 5.80547515e-17
vn 0.940105081 0.340884715 -2.08731682e-17
vn 0.864238858 0.503081799 -3.08048777e-17
vn 0.997630119 -0.0688051358 4.21309928e-18
vn 0.801258266 0.598318696 -3.66364514e-17
vn 0.448453367 -0.893806159 5.47298394e-17
vn 0.628855646 0.777522147 -4.76094985e-17
vn -0.324416161 -0.945914507 5.79205563e-17
vn 0.901825428 -0.432100594 2.64585283e-17
vn 0.946112037 -0.323839545 1.98294532e-17
vn -0.108031422 0.99414748 -6.08739749e-17
vn 0.317119837 -0.948385537 5.80718642e-17
vn 0.585993469 0.810315788 -4.96175324e-17
vn -0.0331360549 -0.999450803 6.11987128e-17
vn 0.394368559 0.918952346 -5.62696031e-17
vn 0.0831203461 0.996539533 -6.10204454e-17
vn -0.405678034 0.914016128 -5.59673446e-17
vn 0.245053783 -0.969509482 5.93653364e-17
vn -0.183115005 -0.983091533 6.01969904e-17
vn -0.522547543 -0.852610111 5.22073125e-17
vn -0.881178319 -0.472784162 2.89496803e-17
vn -0.999161303 -0.0409461893 2.50723097e-18
vn -0.863436282 0.50445801 -3.08891442e-17
vn -0.595542789 0.803323567 -4.91893804e-17
vn -0.375297219 0.926904559 -5.67565345e-17
vn 0.0527783185 0.998606205 -6.11469974e-17
vn 0.702583432 0.711601317 -4.35730126e-17
vn 0.954604864 0.297874779 -1.82395691e-17
vn 0.951236248 0.308463246 -1.88879265e-17
vn 0.163398832 0.986560047 -6.04093839e-17
vn -0.819853067 0.572574079 -3.5060047e-17
vn -0.83915329 0.543895125 -3.33039657e-17
vn -0.591989994 0.805945218 -4.9349913e-17
vn -0.14313671 0.98970288 -6.06018259e-17
vn 0.346551597 0.938030899 -5.74378269e-17
vn 0.757850707 0.652427971 -3.99496902e-17
vn 0.971957922 0.235154852 -1.4399082e-17
vn 0.967461348 -0.253018677 1.54929258e-17
vn 0.800999045 -0.598665535 3.66576934e-17
vn 0.708524287 -0.705686331 4.32108266e-17
vn 0.703335047 -0.710858524 4.35275342e-17
vn 0.600838006 -0.799370885 4.89473506e-17
vn 0.0725460723 -0.997364938 6.10709895e-17
vn -0.472551733 -0.881302774 5.39642275e-17
vn -0.00487890653 -0.999988139 6.12316081e-17
vn -0.251984805 -0.967731178 5.92564464e-17
vn -0.317954153 -0.94810605 5.80547515e-17
vn 0.104628429 -0.994511366 6.08962558e-17
vn -0.569328129 -0.822110295 5.03397405e-17
vn -0.588023901 0.808843613 -4.95273829e-17
vn -0.307159454 0.95165807 -5.8272247e-17
vn 0.230352044 0.973107338 -5.95856378e-17
vn 0.628855646 0.777522147 -4.76094985e-17
vn 0.801258266 0.598318696 -3.66364514e-17
vn 0.864238858 0.503081799 -3.08048777e-17
vn 0.940105081 0.340884715 -2.08731682e-17
vn 0.997630119 -0.0688051358 4.21309928e-18
vn 0.800982594 -0.598687649 3.66590466e-17
vn 0.448453367 -0.893806159 5.47298394e-17
vn 0.170632422 -0.985334694 6.03343487e-17
vn -0.324416161 -0.945914507 5.79205563e-17
vn 0.00565400766 -0.999984086 6.12313632e-17
vn 0.901825428 -0.432100594 2.64585283e-17
vn 0.946112037 -0.323839545 1.98294532e-17
vn 0.637171805 -0.770721912 4.71931057e-17
vn 0.317119837 -0.948385537 5.80718642e-17
vn -0.0331360549 -0.999450803 6.11987128e-17
vn -0.485519201 -0.874225974 5.35309007e-17
vn -0.849833488 -0.52705127 3.22725839e-17
vn -0.992637932 0.121118866 -7.41639218e-18
vn -0.976184309 0.21694319 -1.32839391e-17
vn -0.835243583 -0.549880147 3.36704497e-17
vn -0.208753392 -0.977968335 5.98832905e-17
vn 0.572872818 -0.819644272 5.01887337e-17
vn 0.92679131 -0.375576675 2.29974375e-17
vn 0.769499362 -0.638647616 3.91058833e-17
vn 0.245053783 -0.969509482 5.93653364e-17
vn -0.183115005 -0.983091533 6.01969904e-17
vn -0.522547543 -0.852610111 5.22073125e-17
vn -0.970419824 -0.241423488 1.47829252e-17
vn -0.81708163 0.576522052 -3.53017921e-17
vn -0.578328013 0.815804422 -4.99536126e-17
vn -0.507784545 0.86148411 -5.27506907e-17
vn -0.355380267 0.934721768 -5.72351942e-17
vn -0.329095542 0.944296598 -5.78214932e-17
vn -0.405678034 0.914016128 -5.59673446e-17
vn -0.25005573 0.96823138 -5.92870785e-17
vn 0.0831203461 0.996539533 -6.10204454e-17
vn 0.394368559 0.918952346 -5.62696031e-17
vn 0.585993469 0.810315788 -4.96175324e-17
vn 0.551161528 0.834398508 -5.10921737e-17
vn -0.108031422 0.99414748 -6.08739749e-17
vn -0.781947136 0.623344839 -3.8168863e-17
vn 0.722237587 0.691645026 -4.23510452e-17
vn 0.25270471 -0.967543423 5.92449453e-17
g UVGroup01_outline
f 36/1/36 75/2/75 76/3/76 6/4/6
f 49/69/49 92/70/92 93/71/93 21/72/21
f 21/73/21 93/74/93 94/75/94 22/76/22
f 22/77/22 94/78/94 95/79/95 23/80/23
f 23/81/23 95/82/95 96/83/96 24/84/24
f 24/85/24 96/86/96 97/87/97 1/88/1
f 1/89/1 97/90/97 98/91/98 28/92/28
f 28/93/28 98/94/98 99/95/99 54/96/54
f 54/97/54 99/98/99 100/99/100 2/100/2
f 2/101/2 100/102/100 101/103/101 55/104/55
f 55/105/55 101/106/101 102/107/102 4/108/4
f 4/109/4 102/110/102 103/111/103 5/112/5
f 5/113/5 103/114/103 75/115/75 36/116/36
f 58/145/58 111/146/111 112/147/112 37/148/37
f 37/149/37 112/150/112 113/151/113 60/152/60
f 60/153/60 113/154/113 114/155/114 38/156/38
f 38/157/38 114/158/114 115/159/115 62/160/62
f 62/161/62 115/162/115 116/163/116 39/164/39
f 39/165/39 116/166/116 117/167/117 63/168/63
f 63/169/63 117/170/117 118/171/118 64/172/64
f 64/173/64 118/174/118 119/175/119 40/176/40
f 40/177/40 119/178/119 120/179/120 66/180/66
f 66/181/66 120/182/120 121/183/121 68/184/68
f 68/185/68 121/186/121 122/187/122 11/188/11
f 11/189/11 122/190/122 123/191/123 10/192/10
f 10/193/10 123/194/123 124/195/124 44/196/44
f 43/201/43 125/202/125 126/203/126 42/204/42
f 42/205/42 126/206/126 127/207/127 46/208/46
f 46/209/46 127/210/127 128/211/128 12/212/12
f 12/213/12 128/214/128 129/215/129 14/216/14
f 14/217/14 129/218/129 130/219/130 16/220/16
f 16/221/16 130/222/130 131/223/131 72/224/72
f 72/225/72 131/226/131 132/227/132 73/228/73
f 73/229/73 132/230/132 133/231/133 74/232/74
f 74/233/74 133/234/133 134/235/134 47/236/47
f 31/297/31 149/298/149 147/299/147 3/300/3
g UVGroup02_outline
f 6/5/6 76/6/76 77/7/77 35/8/35
f 35/9/35 77/10/77 78/11/78 34/12/34
f 34/13/34 78/14/78 79/15/79 32/16/32
f 32/17/32 79/18/79 80/19/80 33/20/33
f 33/21/33 80/22/80 81/23/81 30/24/30
f 30/25/30 81/26/81 82/27/82 29/28/29
f 29/29/29 82/30/82 83/31/83 53/32/53
f 53/33/53 83/34/83 84/35/84 27/36/27
f 27/37/27 84/38/84 85/39/85 26/40/26
f 26/41/26 85/42/85 86/43/86 25/44/25
f 25/45/25 86/46/86 87/47/87 52/48/52
f 52/49/52 87/50/87 88/51/88 51/52/51
f 51/53/51 88/54/88 89/55/89 50/56/50
f 50/57/50 89/58/89 90/59/90 20/60/20
f 20/61/20 90/62/90 91/63/91 48/64/48
f 48/65/48 91/66/91 92/67/92 49/68/49
f 9/117/9 104/118/104 105/119/105 8/120/8
f 8/121/8 105/122/105 106/123/106 7/124/7
f 7/125/7 106/126/106 107/127/107 61/128/61
f 61/129/61 107/130/107 108/131/108 59/132/59
f 59/133/59 108/134/108 109/135/109 57/136/57
f 57/137/57 109/138/109 110/139/110 56/140/56
f 56/141/56 110/142/110 111/143/111 58/144/58
f 44/197/44 124/198/124 125/199/125 43/200/43
f 47/237/47 134/238/134 135/239/135 19/240/19
f 19/241/19 135/242/135 136/243/136 18/244/18
f 18/245/18 136/246/136 137/247/137 17/248/17
f 17/249/17 137/250/137 138/251/138 15/252/15
f 15/253/15 138/254/138 139/255/139 13/256/13
f 13/257/13 139/258/139 140/259/140 71/260/71
f 71/261/71 140/262/140 141/263/141 45/264/45
f 45/265/45 141/266/141 142/267/142 70/268/70
f 70/269/70 142/270/142 143/271/143 69/272/69
f 69/273/69 143/274/143 144/275/144 67/276/67
f 67/277/67 144/278/144 145/279/145 41/280/41
f 41/281/41 145/282/145 146/283/146 65/284/65
f 65/285/65 146/286/146 104/287/104 9/288/9
f 3/289/3 147/290/147 148/291/148 2/292/2
f 2/293/2 148/294/148 149/295/149 31/296/31
