# File exported by Houdini 16.0.633 (www.sidefx.com)
# 148 points
# 296 vertices
# 74 primitives
# Bounds: [0, -8.11437893, -1.05000007] to [47.3317184, 8.11437893, 1.05000007]
g 
v 38.0238495 0.082524918 -1.05000007
v 35.709259 0.544745922 -1.05000007
v 34.8692589 0.698757887 -1.05000007
v 33.1892586 1.49250102 -1.05000007
v 31.5092602 -7.49285841 -1.05000007
v 30.7524395 1.76252425 -1.05000007
v 30.6692581 -6.97312737 -1.05000007
v 21.4292583 4.87400866 -1.05000007
v 18.9092617 4.46761179 -1.05000007
v 18.3418102 5.12252378 -1.05000007
v 17.6371632 -4.95747614 -1.05000007
v 18.0281982 -5.79747534 -1.05000007
v 17.2292595 6.86888599 -1.05000007
v 16.9919128 -3.27747464 -1.05000007
v 15.5492573 8.01403046 -1.05000007
v 14.7768021 -2.43747568 -1.05000007
v 12.1892586 -3.38892484 -1.05000007
v 9.66925812 -4.17022991 -1.05000007
v 5.8269043 4.28252459 -1.05000007
v 5.05123138 5.12252378 -1.05000007
v 2.95005035 -3.27747464 -1.05000007
v 2.10925674 -2.57928753 -1.05000007
v 0.68794632 -0.757475257 -1.05000007
v 42.4292564 5.94401979 -1.05000007
v 41.5892601 1.69314957 -1.05000007
v 39.0323105 1.76252425 -1.05000007
v 38.2096176 -1.59747541 -1.05000007
v 37.2879257 -5.79747534 -1.05000007
v 37.3892593 -5.57774544 -1.05000007
v 35.709259 -7.49272442 -1.05000007
v 29.829258 4.25486326 -1.05000007
v 23.2096043 5.96252394 -1.05000007
v 22.2692585 -5.8258276 -1.05000007
v 5.1411171 1.76252425 -1.05000007
v 3.08059692 4.28252459 -1.05000007
v 0.496406555 3.44252467 -1.05000007
v 43.2618675 4.28252459 -1.05000007
v 42.7421646 2.60252452 -1.05000007
v 41.5892601 6.33183575 -1.05000007
v 39.909256 6.11095619 -1.05000007
v 38.673584 4.28252459 -1.05000007
v 38.4706345 -0.757475257 -1.05000007
v 37.9218864 -3.27747464 -1.05000007
v 34.0292587 -8.11437893 -1.05000007
v 29.3721066 5.12252378 -1.05000007
v 28.9892597 -6.13423395 -1.05000007
v 28.3199825 5.96252394 -1.05000007
v 27.3092613 -5.70848131 -1.05000007
v 26.4692574 6.68267775 -1.05000007
v 25.6292591 -5.61799192 -1.05000007
v 24.789259 6.57545233 -1.05000007
v 23.9492607 -5.45944071 -1.05000007
v 20.5892601 -6.35028791 -1.05000007
v 13.8692589 8.11437893 -1.05000007
v 13.8692589 -2.32605767 -1.05000007
v 12.6735802 7.64252424 -1.05000007
v 11.3492584 6.31246662 -1.05000007
v 10.5092583 4.73768711 -1.05000007
v 9.70607376 2.60252452 -1.05000007
v 8.82925797 1.31555462 -1.05000007
v 8.82925797 -4.17299366 -1.05000007
v 7.14925766 1.02688289 -1.05000007
v 7.14925766 -4.35098648 -1.05000007
v 5.46925735 -4.44248962 -1.05000007
v 0 2.60252452 -1.05000007
v 42.4292564 -5.77052164 -1.05000007
v 47.007225 -3.27747464 -1.05000007
v 46.6292572 -2.73450637 -1.05000007
v 47.3317184 -4.95747614 -1.05000007
v 46.6292572 -6.41489744 -1.05000007
v 44.9492607 -1.76194119 -1.05000007
v 44.9492607 -7.1825695 -1.05000007
v 43.2692566 -2.02576375 -1.05000007
v 42.4292564 -2.81778359 -1.05000007
v 37.2879257 -5.79747534 1.05000007
v 35.709259 -7.49272442 1.05000007
v 34.0292587 -8.11437893 1.05000007
v 31.5092602 -7.49285841 1.05000007
v 30.6692581 -6.97312737 1.05000007
v 28.9892597 -6.13423395 1.05000007
v 27.3092613 -5.70848131 1.05000007
v 25.6292591 -5.61799192 1.05000007
v 23.9492607 -5.45944071 1.05000007
v 22.2692585 -5.8258276 1.05000007
v 20.5892601 -6.35028791 1.05000007
v 18.0281982 -5.79747534 1.05000007
v 17.6371632 -4.95747614 1.05000007
v 16.9919128 -3.27747464 1.05000007
v 14.7768021 -2.43747568 1.05000007
v 13.8692589 -2.32605767 1.05000007
v 12.1892586 -3.38892484 1.05000007
v 9.66925812 -4.17022991 1.05000007
v 8.82925797 -4.17299366 1.05000007
v 7.14925766 -4.35098648 1.05000007
v 5.46925735 -4.44248962 1.05000007
v 2.95005035 -3.27747464 1.05000007
v 2.10925674 -2.57928753 1.05000007
v 0.68794632 -0.757475257 1.05000007
v 0 2.60252452 1.05000007
v 0.496406555 3.44252467 1.05000007
v 3.08059692 4.28252459 1.05000007
v 5.05123138 5.12252378 1.05000007
v 5.8269043 4.28252459 1.05000007
v 5.1411171 1.76252425 1.05000007
v 7.14925766 1.02688289 1.05000007
v 8.82925797 1.31555462 1.05000007
v 9.70607376 2.60252452 1.05000007
v 10.5092583 4.73768711 1.05000007
v 11.3492584 6.31246662 1.05000007
v 12.6735802 7.64252424 1.05000007
v 13.8692589 8.11437893 1.05000007
v 15.5492573 8.01403046 1.05000007
v 17.2292595 6.86888599 1.05000007
v 18.3418102 5.12252378 1.05000007
v 18.9092617 4.46761179 1.05000007
v 21.4292583 4.87400866 1.05000007
v 23.2096043 5.96252394 1.05000007
v 24.789259 6.57545233 1.05000007
v 26.4692574 6.68267775 1.05000007
v 28.3199825 5.96252394 1.05000007
v 29.3721066 5.12252378 1.05000007
v 29.829258 4.25486326 1.05000007
v 30.7524395 1.76252425 1.05000007
v 33.1892586 1.49250102 1.05000007
v 34.8692589 0.698757887 1.05000007
v 35.709259 0.544745922 1.05000007
v 38.0238495 0.082524918 1.05000007
v 38.4706345 -0.757475257 1.05000007
v 38.2096176 -1.59747541 1.05000007
v 37.9218864 -3.27747464 1.05000007
v 37.3892593 -5.57774544 1.05000007
v 38.673584 4.28252459 1.04999995
v 39.909256 6.11095619 1.04999995
v 41.5892601 6.33183575 1.04999995
v 42.4292564 5.94401979 1.04999995
v 43.2618675 4.28252459 1.04999995
v 42.7421646 2.60252452 1.04999995
v 41.5892601 1.69314957 1.04999995
v 39.0323105 1.76252425 1.04999995
v 42.4292564 -2.81778359 1.04999995
v 43.2692566 -2.02576375 1.04999995
v 44.9492607 -1.76194119 1.04999995
v 46.6292572 -2.73450637 1.04999995
v 47.007225 -3.27747464 1.04999995
v 47.3317184 -4.95747614 1.04999995
v 46.6292572 -6.41489744 1.04999995
v 44.9492607 -7.1825695 1.04999995
v 42.4292564 -5.77052164 1.04999995
vt 0.102286004 0.516622066 0
vt 0.102284074 0.500059307 0
vt 0.147960097 0.500052929 0
vt 0.147960678 0.516616404 0
vt 0.147960678 0.516616404 0
vt 0.147960097 0.500052929 0
vt 0.183285028 0.500056088 0
vt 0.183285326 0.51662004 0
vt 0.183285326 0.51662004 0
vt 0.183285028 0.500056088 0
vt 0.23446396 0.500051975 0
vt 0.234466299 0.516615033 0
vt 0.234466299 0.516615033 0
vt 0.23446396 0.500051975 0
vt 0.253939629 0.500047326 0
vt 0.253941029 0.516609967 0
vt 0.253941029 0.516609967 0
vt 0.253939629 0.500047326 0
vt 0.290966511 0.500046909 0
vt 0.290966272 0.516610742 0
vt 0.290966272 0.516610742 0
vt 0.290966511 0.500046909 0
vt 0.325142115 0.500046849 0
vt 0.325143456 0.516611218 0
vt 0.325143456 0.516611218 0
vt 0.325142115 0.500046849 0
vt 0.358318448 0.500041723 0
vt 0.358320504 0.5166049 0
vt 0.358320504 0.5166049 0
vt 0.358318448 0.500041723 0
vt 0.391590834 0.500040174 0
vt 0.391591102 0.516602635 0
vt 0.391591102 0.516602635 0
vt 0.391590834 0.500040174 0
vt 0.425494462 0.50004077 0
vt 0.425495207 0.516604543 0
vt 0.425495207 0.516604543 0
vt 0.425494462 0.50004077 0
vt 0.460200489 0.500035286 0
vt 0.460202068 0.516599715 0
vt 0.460202068 0.516599715 0
vt 0.460200489 0.500035286 0
vt 0.511865973 0.500032246 0
vt 0.511867046 0.516595304 0
vt 0.511867046 0.516595304 0
vt 0.511865973 0.500032246 0
vt 0.530133367 0.500032961 0
vt 0.530133724 0.516594529 0
vt 0.530133724 0.516594529 0
vt 0.530133367 0.500032961 0
vt 0.565615296 0.500030875 0
vt 0.565616548 0.516595125 0
vt 0.565616548 0.516595125 0
vt 0.565615296 0.500030875 0
vt 0.612336397 0.500023723 0
vt 0.612338006 0.51658839 0
vt 0.612338006 0.51658839 0
vt 0.612336397 0.500023723 0
vt 0.630365431 0.500024915 0
vt 0.630365431 0.516586363 0
vt 0.630365431 0.516586363 0
vt 0.630365431 0.500024915 0
vt 0.669558048 0.500025988 0
vt 0.669560015 0.516589522 0
vt 0.669560015 0.516589522 0
vt 0.669558048 0.500025988 0
vt 0.721588671 0.500013769 0
vt 0.721590698 0.516578436 0
vt 0.721590698 0.516578436 0
vt 0.721588671 0.500013769 0
vt 0.738153458 0.500017107 0
vt 0.738151252 0.516578913 0
vt 0.738151252 0.516578913 0
vt 0.738153458 0.500017107 0
vt 0.771458864 0.500023007 0
vt 0.771460116 0.516585946 0
vt 0.771460116 0.516585946 0
vt 0.771458864 0.500023007 0
vt 0.804636419 0.500010312 0
vt 0.80464071 0.516575515 0
vt 0.80464071 0.516575515 0
vt 0.804636419 0.500010312 0
vt 0.859373629 0.5 0
vt 0.859374464 0.516563416 0
vt 0.859374464 0.516563416 0
vt 0.859373629 0.5 0
vt 0.880917609 0.500007689 0
vt 0.880917907 0.51656878 0
vt 0.880917907 0.51656878 0
vt 0.880917609 0.500007689 0
vt 0.926482797 0.500004411 0
vt 0.92648375 0.516567707 0
vt 0.92648375 0.516567707 0
vt 0.926482797 0.500004411 0
vt 0.994107604 0.5 0
vt 0.994108856 0.516562581 0
vt 0.178000003 0.0495256856 0
vt 0.178000003 0.0300000105 0
vt 0.20068033 0.0300000105 0
vt 0.20068033 0.0495256819 0
vt 0.20068033 0.0495256819 0
vt 0.20068033 0.0300000105 0
vt 0.263843179 0.0300000086 0
vt 0.263843179 0.0495256856 0
vt 0.263843179 0.0495256856 0
vt 0.263843179 0.0300000086 0
vt 0.31363824 0.0300000068 0
vt 0.31363824 0.0495256819 0
vt 0.31363824 0.0495256819 0
vt 0.31363824 0.0300000068 0
vt 0.340215385 0.0299999993 0
vt 0.340215415 0.0495256819 0
vt 0.422497422 0.52700001 0
vt 0.422497422 0.543563426 0
vt 0.370999992 0.543563426 0
vt 0.370999992 0.52700001 0
vt 4.82038274e-07 0.0195378084 0
vt 0 1.1984348e-05 0
vt 0.0497127734 1.09984139e-05 0
vt 0.0497127287 0.0195366833 0
vt 0.0497127287 0.0195366833 0
vt 0.0497127734 1.09984139e-05 0
vt 0.0893362686 1.21387557e-05 0
vt 0.0893365145 0.0195378084 0
vt 0.0893365145 0.0195378084 0
vt 0.0893362686 1.21387557e-05 0
vt 0.125534758 9.8694627e-06 0
vt 0.125535145 0.0195355508 0
vt 0.125535145 0.0195355508 0
vt 0.125534758 9.8694627e-06 0
vt 0.178561747 1.0321296e-05 0
vt 0.178561836 0.0195360314 0
vt 0.178561836 0.0195360314 0
vt 0.178561747 1.0321296e-05 0
vt 0.220049173 9.41762937e-06 0
vt 0.22004956 0.019535115 0
vt 0.22004956 0.019535115 0
vt 0.220049173 9.41762937e-06 0
vt 0.263678253 8.88985687e-06 0
vt 0.263678461 0.0195345283 0
vt 0.263678461 0.0195345283 0
vt 0.263678253 8.88985687e-06 0
vt 0.293557525 8.7721528e-06 0
vt 0.293557703 0.019534409 0
vt 0.293557703 0.019534409 0
vt 0.293557525 8.7721528e-06 0
vt 0.332678467 8.15072326e-06 0
vt 0.332678705 0.0195338205 0
vt 0.332678705 0.0195338205 0
vt 0.332678467 8.15072326e-06 0
vt 0.379939169 7.58498209e-06 0
vt 0.379939377 0.0195331573 0
vt 0.379939377 0.0195331573 0
vt 0.379939169 7.58498209e-06 0
vt 0.428070426 6.95469316e-06 0
vt 0.428070545 0.019532714 0
vt 0.428070545 0.019532714 0
vt 0.428070426 6.95469316e-06 0
vt 0.448213965 6.76484706e-06 0
vt 0.448214173 0.0195325464 0
vt 0.448214173 0.0195325464 0
vt 0.448213965 6.76484706e-06 0
vt 0.507547438 5.83333576e-06 0
vt 0.507547557 0.0195314065 0
vt 0.507547557 0.0195314065 0
vt 0.507547438 5.83333576e-06 0
vt 0.556053162 5.89535239e-06 0
vt 0.55605346 0.0195316598 0
vt 0.55605346 0.0195316598 0
vt 0.556053162 5.89535239e-06 0
vt 0.595439792 4.26267661e-06 0
vt 0.59544003 0.0195299387 0
vt 0.59544003 0.0195299387 0
vt 0.595439792 4.26267661e-06 0
vt 0.634570003 4.93220023e-06 0
vt 0.634570122 0.0195306148 0
vt 0.634570122 0.0195306148 0
vt 0.634570003 4.93220023e-06 0
vt 0.68073231 3.66276299e-06 0
vt 0.680732667 0.019529447 0
vt 0.680732667 0.019529447 0
vt 0.68073231 3.66276299e-06 0
vt 0.712027252 3.38179075e-06 0
vt 0.712027311 0.0195289198 0
vt 0.712027311 0.0195289198 0
vt 0.712027252 3.38179075e-06 0
vt 0.734823704 3.46152615e-06 0
vt 0.734823942 0.0195290986 0
vt 0.734823942 0.0195290986 0
vt 0.734823704 3.46152615e-06 0
vt 0.796604574 2.40598206e-06 0
vt 0.796604931 0.019528104 0
vt 0.796604931 0.019528104 0
vt 0.796604574 2.40598206e-06 0
vt 0.853594661 1.74152103e-06 0
vt 0.853595018 0.0195274018 0
vt 0.853595018 0.0195274018 0
vt 0.853594661 1.74152103e-06 0
vt 0.896785378 1.24159305e-06 0
vt 0.896785617 0.0195269305 0
vt 0.896785617 0.0195269305 0
vt 0.896785378 1.24159305e-06 0
vt 0.916636467 9.58089686e-07 0
vt 0.916636705 0.0195266493 0
vt 0.916636705 0.0195266493 0
vt 0.916636467 9.58089686e-07 0
vt 0.971501172 2.41737297e-07 0
vt 0.97150147 0.0195259061 0
vt 0.97150147 0.0195259061 0
vt 0.971501172 2.41737297e-07 0
vt 0.993617058 0 0
vt 0.993617296 0.0195256434 0
vt 2.67761993e-06 0.516628265 0
vt 0 0.500065923 0
vt 0.0173440576 0.500063181 0
vt 0.0173453856 0.516627133 0
vt 0.0173453856 0.516627133 0
vt 0.0173440576 0.500063181 0
vt 0.0509566329 0.50006175 0
vt 0.0509574674 0.516625762 0
vt 0.0509574674 0.516625762 0
vt 0.0509566329 0.50006175 0
vt 0.0975134447 0.500059843 0
vt 0.0975147858 0.516622841 0
vt 0.0975147858 0.516622841 0
vt 0.0975134447 0.500059843 0
vt 0.102284074 0.500059307 0
vt 0.102286004 0.516622066 0
vt 0.507390022 0.0299999993 0
vt 0.507390022 0.0495256744 0
vt 0.456092864 0.0495256744 0
vt 0.456092864 0.0299999993 0
vt 0.456092864 0.0299999993 0
vt 0.456092864 0.0495256744 0
vt 0.4167054 0.0495256782 0
vt 0.4167054 0.0299999993 0
vt 0.4167054 0.0299999993 0
vt 0.4167054 0.0495256782 0
vt 0.395199209 0.0495256782 0
vt 0.39519918 0.0300000031 0
vt 0.39519918 0.0300000031 0
vt 0.395199209 0.0495256782 0
vt 0.351999998 0.0495256819 0
vt 0.351999998 0.0300000068 0
vt 0.359258235 0.52700001 0
vt 0.359258235 0.543563545 0
vt 0.324582636 0.543563783 0
vt 0.324582517 0.527000308 0
vt 0.324582517 0.527000308 0
vt 0.324582636 0.543563783 0
vt 0.295628488 0.543563902 0
vt 0.295628399 0.527000487 0
vt 0.295628399 0.527000487 0
vt 0.295628488 0.543563902 0
vt 0.245191231 0.5435642 0
vt 0.245191112 0.527000785 0
vt 0.245191112 0.527000785 0
vt 0.245191231 0.5435642 0
vt 0.195000067 0.543564439 0
vt 0.194999993 0.527001023 0
vt 0.166640684 0.0299999993 0
vt 0.166640699 0.0495256782 0
vt 0.139804259 0.0495256782 0
vt 0.139804259 0.0299999993 0
vt 0.139804259 0.0299999993 0
vt 0.139804259 0.0495256782 0
vt 0.10027428 0.0495256782 0
vt 0.10027428 0.0300000049 0
vt 0.10027428 0.0300000049 0
vt 0.10027428 0.0495256782 0
vt 0.0551512502 0.0495256819 0
vt 0.0551512465 0.0300000068 0
vt 0.0551512465 0.0300000068 0
vt 0.0551512502 0.0495256819 0
vt 0.0397731587 0.0495256819 0
vt 0.0397731587 0.0300000068 0
vt 0.0397731587 0.0300000068 0
vt 0.0397731587 0.0495256819 0
vt 1.80175583e-10 0.0495256856 0
vt 0 0.0300000161 0
vt 0.183505788 0.52700001 0
vt 0.183505788 0.543563485 0
vt 0.151603922 0.543563545 0
vt 0.151603892 0.527000129 0
vt 0.151603892 0.527000129 0
vt 0.151603922 0.543563545 0
vt 0.115182497 0.543563604 0
vt 0.115182474 0.527000189 0
vt 0.115182474 0.527000189 0
vt 0.115182497 0.543563604 0
vt 0.0582231544 0.543563664 0
vt 0.0582231134 0.527000248 0
vt 0.0582231134 0.527000248 0
vt 0.0582231544 0.543563664 0
vt 2.2637467e-08 0.543563724 0
vt 0 0.527000308 0
vn 0.596823514 0.802372575 -4.91311535e-17
vn 0.188092619 0.982151151 -6.0139412e-17
vn 0.306349903 0.9519189 -5.82882215e-17
vn 0.272383243 0.96218884 -5.89170773e-17
vn -0.387522072 -0.921860516 5.64476719e-17
vn 0.615648746 0.78802073 -4.82523535e-17
vn -0.486952901 -0.873428226 5.34820573e-17
vn -0.346960753 0.937879562 -5.74285559e-17
vn 0.34145841 0.939896882 -5.75520837e-17
vn 0.801737845 0.5976758 -3.65970875e-17
vn -0.920595348 -0.390517741 2.39123158e-17
vn -0.62400049 -0.781423926 4.7848418e-17
vn 0.718003154 0.696039736 -4.26201403e-17
vn -0.705604494 -0.708605945 4.33896002e-17
vn 0.32307443 0.946373403 -5.7948654e-17
vn -0.2399441 -0.970786691 5.94435414e-17
vn 0.419020146 -0.907976806 5.5597542e-17
vn 0.1513827 -0.988475204 6.05266517e-17
vn 0.971349597 0.237655252 -1.45521865e-17
vn 0.209562659 0.977795184 -5.98726893e-17
vn -0.533793271 -0.84561491 5.17789818e-17
vn -0.717797399 -0.696252108 4.26331469e-17
vn -0.908029258 -0.418906868 2.56506475e-17
vn 0.695697904 0.718334317 -4.39852894e-17
vn 0.31491226 -0.949120641 5.8116876e-17
vn -0.665572047 -0.746333599 4.56997535e-17
vn 0.972409785 -0.233279347 1.42842395e-17
vn 0.830410957 -0.557151318 3.41156813e-17
vn 0.946100831 -0.32387194 1.98314368e-17
vn 0.554448664 -0.832217932 5.09586535e-17
vn 0.913158953 0.407603532 -2.49585173e-17
vn -0.443453461 0.896297336 -5.48823848e-17
vn 0.255783916 -0.966733873 5.9195374e-17
vn 0.888388872 0.459091693 -2.811126e-17
vn -0.350971103 0.936386228 -5.73371227e-17
vn -0.625417292 0.780290484 -4.77790143e-17
vn 0.996617854 0.0821747929 -5.03175456e-18
vn 0.824501514 -0.565859675 3.46489117e-17
vn 0.150329888 0.988635898 -6.05364852e-17
vn -0.525760055 0.850632906 -5.2086243e-17
vn -0.974469125 0.224521533 -1.37479784e-17
vn 0.995606065 0.0936406478 -5.73383609e-18
vn 0.980347216 -0.197279379 1.20798777e-17
vn 0.0562698469 -0.99841553 6.11353243e-17
vn 0.770621836 0.637292683 -3.90229204e-17
vn -0.348209023 -0.937416911 5.74002266e-17
vn 0.498981655 0.866612494 -5.30647116e-17
vn -0.150431857 -0.9886204 6.05355455e-17
vn 0.153072715 0.988214791 -6.05107036e-17
vn -0.0738863498 -0.99726665 6.10649676e-17
vn -0.215236902 0.976561785 -5.97971644e-17
vn 0.0602776371 -0.998181522 6.11209843e-17
vn 0.0449852012 -0.998987615 6.11703504e-17
vn -0.157447815 0.98752737 -6.04686101e-17
vn 0.219171673 -0.975686193 5.97435433e-17
vn -0.54945761 0.835521638 -5.11609455e-17
vn -0.80410558 0.594486356 -3.64017868e-17
vn -0.911077321 0.41223526 -2.52421294e-17
vn -0.887488127 0.460830539 -2.82177347e-17
vn -0.540851593 0.841118097 -5.15036299e-17
vn 0.0543954149 -0.99851954 6.11416836e-17
vn 0.0903671905 0.995908499 -6.09818062e-17
vn 0.07989797 -0.996802926 6.10365788e-17
vn -0.188244656 -0.982122123 6.0137632e-17
vn -0.986270905 0.165135309 -1.01116212e-17
vn -0.862793803 -0.505555868 3.09563708e-17
vn 0.921272159 0.388918251 -2.3814376e-17
vn 0.677033544 0.735952199 -4.50640719e-17
vn 0.991669476 -0.128808469 7.88724407e-18
vn 0.699815452 -0.71432364 4.37397094e-17
vn 0.183455884 0.983027935 -6.01930994e-17
vn -0.0410519876 -0.999157012 6.11807199e-17
vn -0.440258294 0.897871017 -5.49787447e-17
vn -0.918156385 0.396218181 -2.42613662e-17
vn 0.830410957 -0.557151318 3.41156813e-17
vn 0.554448664 -0.832217932 5.09586535e-17
vn 0.0562698469 -0.99841553 6.11353243e-17
vn -0.387522072 -0.921860516 5.64476719e-17
vn -0.486952901 -0.873428226 5.34820573e-17
vn -0.348209023 -0.937416911 5.74002266e-17
vn -0.150431857 -0.9886204 6.05355455e-17
vn -0.0738863498 -0.99726665 6.10649676e-17
vn 0.0602776371 -0.998181522 6.11209843e-17
vn 0.255783916 -0.966733873 5.9195374e-17
vn 0.0449852012 -0.998987615 6.11703504e-17
vn -0.62400049 -0.781423926 4.7848418e-17
vn -0.920595348 -0.390517741 2.39123158e-17
vn -0.705604494 -0.708605945 4.33896002e-17
vn -0.2399441 -0.970786691 5.94435414e-17
vn 0.219171673 -0.975686193 5.97435433e-17
vn 0.419020146 -0.907976806 5.5597542e-17
vn 0.1513827 -0.988475204 6.05266517e-17
vn 0.0543954149 -0.99851954 6.11416836e-17
vn 0.07989797 -0.996802926 6.10365788e-17
vn -0.188244656 -0.982122123 6.0137632e-17
vn -0.533793271 -0.84561491 5.17789818e-17
vn -0.717797399 -0.696252108 4.26331469e-17
vn -0.908029258 -0.418906868 2.56506475e-17
vn -0.986270905 0.165135309 -1.01116212e-17
vn -0.625417292 0.780290484 -4.77790143e-17
vn -0.350971103 0.936386228 -5.73371227e-17
vn 0.209562659 0.977795184 -5.98726893e-17
vn 0.971349597 0.237655252 -1.45521865e-17
vn 0.888388872 0.459091693 -2.811126e-17
vn 0.0903671905 0.995908499 -6.09818062e-17
vn -0.540851593 0.841118097 -5.15036299e-17
vn -0.887488127 0.460830539 -2.82177347e-17
vn -0.911077321 0.41223526 -2.52421294e-17
vn -0.80410558 0.594486356 -3.64017868e-17
vn -0.54945761 0.835521638 -5.11609455e-17
vn -0.157447815 0.98752737 -6.04686101e-17
vn 0.32307443 0.946373403 -5.7948654e-17
vn 0.718003154 0.696039736 -4.26201403e-17
vn 0.801737845 0.5976758 -3.65970875e-17
vn 0.34145841 0.939896882 -5.75520837e-17
vn -0.346960753 0.937879562 -5.74285559e-17
vn -0.443453461 0.896297336 -5.48823848e-17
vn -0.215236902 0.976561785 -5.97971644e-17
vn 0.153072715 0.988214791 -6.05107036e-17
vn 0.498981655 0.866612494 -5.30647116e-17
vn 0.770621836 0.637292683 -3.90229204e-17
vn 0.913158953 0.407603532 -2.49585173e-17
vn 0.615648746 0.78802073 -4.82523535e-17
vn 0.272383243 0.96218884 -5.89170773e-17
vn 0.306349903 0.9519189 -5.82882215e-17
vn 0.188092619 0.982151151 -6.0139412e-17
vn 0.596823514 0.802372575 -4.91311535e-17
vn 0.995606065 0.0936406478 -5.73383609e-18
vn 0.972409785 -0.233279347 1.42842395e-17
vn 0.980347216 -0.197279379 1.20798777e-17
vn 0.946100831 -0.32387194 1.98314368e-17
vn -0.974469125 0.224521533 -1.37479784e-17
vn -0.525760055 0.850632906 -5.2086243e-17
vn 0.150329888 0.988635898 -6.05364852e-17
vn 0.695697904 0.718334317 -4.39852894e-17
vn 0.996617854 0.0821747929 -5.03175456e-18
vn 0.824501514 -0.565859675 3.46489117e-17
vn 0.31491226 -0.949120641 5.8116876e-17
vn -0.665572047 -0.746333599 4.56997535e-17
vn -0.918156385 0.396218181 -2.42613662e-17
vn -0.440258294 0.897871017 -5.49787447e-17
vn 0.183455884 0.983027935 -6.01930994e-17
vn 0.677033544 0.735952199 -4.50640719e-17
vn 0.921272159 0.388918251 -2.3814376e-17
vn 0.991669476 -0.128808469 7.88724407e-18
vn 0.699815452 -0.71432364 4.37397094e-17
vn -0.0410519876 -0.999157012 6.11807199e-17
vn -0.862793803 -0.505555868 3.09563708e-17
g 
f 28/1/28 75/2/75 76/3/76 30/4/30
f 30/5/30 76/6/76 77/7/77 44/8/44
f 44/9/44 77/10/77 78/11/78 5/12/5
f 5/13/5 78/14/78 79/15/79 7/16/7
f 7/17/7 79/18/79 80/19/80 46/20/46
f 46/21/46 80/22/80 81/23/81 48/24/48
f 48/25/48 81/26/81 82/27/82 50/28/50
f 50/29/50 82/30/82 83/31/83 52/32/52
f 52/33/52 83/34/83 84/35/84 33/36/33
f 33/37/33 84/38/84 85/39/85 53/40/53
f 53/41/53 85/42/85 86/43/86 12/44/12
f 12/45/12 86/46/86 87/47/87 11/48/11
f 11/49/11 87/50/87 88/51/88 14/52/14
f 14/53/14 88/54/88 89/55/89 16/56/16
f 16/57/16 89/58/89 90/59/90 55/60/55
f 55/61/55 90/62/90 91/63/91 17/64/17
f 17/65/17 91/66/91 92/67/92 18/68/18
f 18/69/18 92/70/92 93/71/93 61/72/61
f 61/73/61 93/74/93 94/75/94 63/76/63
f 63/77/63 94/78/94 95/79/95 64/80/64
f 64/81/64 95/82/95 96/83/96 21/84/21
f 21/85/21 96/86/96 97/87/97 22/88/22
f 22/89/22 97/90/97 98/91/98 23/92/23
f 23/93/23 98/94/98 99/95/99 65/96/65
f 65/97/65 99/98/99 100/99/100 36/100/36
f 36/101/36 100/102/100 101/103/101 35/104/35
f 35/105/35 101/106/101 102/107/102 20/108/20
f 20/109/20 102/110/102 103/111/103 19/112/19
f 19/113/19 103/114/103 104/115/104 34/116/34
f 34/117/34 104/118/104 105/119/105 62/120/62
f 62/121/62 105/122/105 106/123/106 60/124/60
f 60/125/60 106/126/106 107/127/107 59/128/59
f 59/129/59 107/130/107 108/131/108 58/132/58
f 58/133/58 108/134/108 109/135/109 57/136/57
f 57/137/57 109/138/109 110/139/110 56/140/56
f 56/141/56 110/142/110 111/143/111 54/144/54
f 54/145/54 111/146/111 112/147/112 15/148/15
f 15/149/15 112/150/112 113/151/113 13/152/13
f 13/153/13 113/154/113 114/155/114 10/156/10
f 10/157/10 114/158/114 115/159/115 9/160/9
f 9/161/9 115/162/115 116/163/116 8/164/8
f 8/165/8 116/166/116 117/167/117 32/168/32
f 32/169/32 117/170/117 118/171/118 51/172/51
f 51/173/51 118/174/118 119/175/119 49/176/49
f 49/177/49 119/178/119 120/179/120 47/180/47
f 47/181/47 120/182/120 121/183/121 45/184/45
f 45/185/45 121/186/121 122/187/122 31/188/31
f 31/189/31 122/190/122 123/191/123 6/192/6
f 6/193/6 123/194/123 124/195/124 4/196/4
f 4/197/4 124/198/124 125/199/125 3/200/3
f 3/201/3 125/202/125 126/203/126 2/204/2
f 2/205/2 126/206/126 127/207/127 1/208/1
f 1/209/1 127/210/127 128/211/128 42/212/42
f 42/213/42 128/214/128 129/215/129 27/216/27
f 27/217/27 129/218/129 130/219/130 43/220/43
f 43/221/43 130/222/130 131/223/131 29/224/29
f 29/225/29 131/226/131 75/227/75 28/228/28
f 41/229/41 132/230/132 133/231/133 40/232/40
f 40/233/40 133/234/133 134/235/134 39/236/39
f 39/237/39 134/238/134 135/239/135 24/240/24
f 24/241/24 135/242/135 136/243/136 37/244/37
f 37/245/37 136/246/136 137/247/137 38/248/38
f 38/249/38 137/250/137 138/251/138 25/252/25
f 25/253/25 138/254/138 139/255/139 26/256/26
f 26/257/26 139/258/139 132/259/132 41/260/41
f 74/261/74 140/262/140 141/263/141 73/264/73
f 73/265/73 141/266/141 142/267/142 71/268/71
f 71/269/71 142/270/142 143/271/143 68/272/68
f 68/273/68 143/274/143 144/275/144 67/276/67
f 67/277/67 144/278/144 145/279/145 69/280/69
f 69/281/69 145/282/145 146/283/146 70/284/70
f 70/285/70 146/286/146 147/287/147 72/288/72
f 72/289/72 147/290/147 148/291/148 66/292/66
f 66/293/66 148/294/148 140/295/140 74/296/74
